<svg width="70" height="70" viewBox="0 0 70 70" fill="none" xmlns="http://www.w3.org/2000/svg">
<path d="M67.2887 48.2998C67.3092 48.2581 67.3274 48.2154 67.3419 48.1717C71.4893 38.5996 70.7482 26.8645 65.3616 17.8952C68.2373 14.4575 64.5019 9.53445 60.4171 11.4393C59.6993 10.7057 58.9456 10.0027 58.1646 9.3379C59.6976 5.17044 54.5812 1.75172 51.3947 4.86541C42.1331 0.188717 30.6138 0.247943 21.4033 5.02367C18.1268 1.55147 12.6243 5.27439 14.608 9.63088C13.4719 10.6243 12.3965 11.6975 11.405 12.8324C10.5489 13.8123 12.0998 15.1554 12.9501 14.1823C13.8725 13.1266 14.872 12.128 15.9277 11.2025C17.9691 12.675 20.9292 11.9248 22.0492 9.67725C25.7452 10.7411 29.2747 12.268 32.5636 14.2277C32.2882 15.2206 32.4007 16.3295 32.8731 17.2461C30.1662 19.5843 27.7285 22.2294 25.6117 25.1282C23.6575 24.5377 21.5034 25.5261 20.6536 27.3768C16.344 27.3999 12.0211 27.8635 7.77672 28.7606C7.40194 28.0622 6.83375 27.4835 6.14492 27.0958C6.94236 23.9861 8.2054 21.0279 9.90669 18.2927C10.5846 17.2026 8.87344 16.0693 8.1645 17.209C6.3557 20.117 5.01223 23.2617 4.16254 26.5674C-0.752016 26.6509 -1.57708 33.4497 3.10153 34.7576C3.03259 44.4338 7.21619 53.8414 14.4708 60.2499C12.9575 64.3379 17.8705 67.7098 21.1128 64.8265C30.5751 69.858 42.5337 69.8587 51.9966 64.8281C55.2942 68.0895 60.5759 64.4459 58.7184 60.1823C62.4573 56.8595 65.3619 52.7953 67.2887 48.2998ZM65.9961 46.0055C63.1564 43.1842 60.0487 40.6249 56.7308 38.3783C57.202 36.9022 56.7925 35.2416 55.6921 34.152C58.4822 29.513 60.6725 24.5388 62.2143 19.3426C62.728 19.3444 63.2219 19.2496 63.677 19.0781C68.4013 27.057 69.2654 37.3443 65.9961 46.0055ZM18.7893 57.6024C17.9259 49.1458 19.4409 40.7093 23.1905 33.0852C25.5199 33.8121 28.0376 32.2803 28.49 29.8892C35.5636 30.7612 42.3763 32.8379 48.7697 36.0721C48.4622 37.2673 48.7168 38.5852 49.4493 39.5795C42.2427 48.7095 32.7299 55.5796 21.8427 59.5172C21.183 58.4726 20.0735 57.7417 18.7893 57.6024ZM50.6904 37.1117C50.6904 35.9492 51.6293 35.0034 52.7833 35.0034C55.5597 35.119 55.5589 39.1047 52.7833 39.2199C51.6293 39.2199 50.6904 38.2742 50.6904 37.1117ZM64.3162 15.1828C64.3162 16.3454 63.3773 17.2911 62.2233 17.2911C59.4468 17.1755 59.4474 13.1898 62.2233 13.0746C63.3773 13.0746 64.3162 14.0203 64.3162 15.1828ZM58.8494 12.7711C57.4316 14.7633 58.0896 17.6433 60.2272 18.8274C58.7337 23.8396 56.6163 28.6376 53.9227 33.113C53.3596 32.951 52.7345 32.9108 52.1555 32.9995C49.34 26.9872 45.2432 21.5719 40.2387 17.2463C40.7115 16.3292 40.8242 15.2222 40.5485 14.228C43.7162 12.3407 47.1093 10.8533 50.6576 9.79598C51.8369 12.0728 55.0005 12.7157 56.9646 11.0113C57.6155 11.5713 58.2457 12.1596 58.8494 12.7711ZM34.4631 15.3416C34.4631 14.1791 35.4019 13.2334 36.556 13.2334C39.3325 13.349 39.3317 17.3346 36.556 17.4497C35.4019 17.4497 34.4631 16.504 34.4631 15.3416ZM54.3057 5.7151C55.4599 5.7151 56.3987 6.66081 56.3987 7.82331C56.2836 10.6201 52.3276 10.6194 52.2128 7.82331C52.2128 6.66081 53.1517 5.7151 54.3057 5.7151ZM18.3404 9.93139C17.1863 9.93139 16.2475 8.98568 16.2475 7.82318C16.3626 5.02627 20.3186 5.02723 20.4334 7.82318C20.4334 8.98568 19.4944 9.93139 18.3404 9.93139ZM22.4811 7.66588C22.4705 7.3811 22.4314 7.10384 22.3663 6.8363C30.9538 2.39541 41.682 2.318 50.3357 6.62976C50.2245 7.00167 50.1637 7.39492 50.1616 7.80211C46.4294 8.90621 42.8606 10.4658 39.5289 12.4474C37.9275 10.7908 35.1851 10.7902 33.5832 12.4472C30.1112 10.3821 26.3843 8.77682 22.4811 7.66588ZM34.2314 18.7838C35.6186 19.7306 37.4929 19.7307 38.8803 18.7839C43.6583 22.9094 47.5725 28.0735 50.2686 33.8081C50.0858 33.9486 49.9151 34.1041 49.7581 34.2725C43.0177 30.8536 35.8246 28.6799 28.353 27.8053C28.1513 27.1947 27.8126 26.6465 27.373 26.1977C29.3782 23.4737 31.6794 20.9858 34.2314 18.7838ZM24.4189 27.0036C25.573 27.0036 26.5118 27.9494 26.5118 29.1119C26.3967 31.9088 22.4407 31.9079 22.3259 29.1119C22.326 27.9494 23.2649 27.0036 24.4189 27.0036ZM2.03217 30.7266C2.03217 29.5641 2.97104 28.6183 4.12507 28.6183C6.90146 28.7339 6.90064 32.7195 4.12507 32.8346C2.97118 32.8348 2.03217 31.8891 2.03217 30.7266ZM5.15312 34.7568C5.15312 34.7568 8.26914 34.0773 8.26914 30.7536C8.26914 30.7536 16.2648 29.4756 20.2877 29.4307C20.3632 30.4245 20.7877 31.3214 21.4386 31.9982C17.4407 40.0411 15.8282 48.9582 16.7564 57.8938C16.3568 58.0604 15.9888 58.2882 15.6635 58.565C8.97069 52.5693 5.15312 42.5236 5.15312 34.7568ZM18.3404 63.8455C17.1863 63.8455 16.2475 62.8998 16.2475 61.7373C16.2475 60.5748 17.1863 59.629 18.3404 59.629C19.4789 59.629 20.4334 60.6152 20.4334 61.7373C20.4334 62.8998 19.4944 63.8455 18.3404 63.8455ZM36.556 66.5643C31.577 66.5643 26.6534 65.3718 22.2529 63.1079C22.4315 62.596 22.5103 62.0127 22.4755 61.4694C33.7379 57.4099 43.5794 50.3155 51.0348 40.882C51.6474 41.1693 52.327 41.3011 53.0023 41.2657C53.4581 42.9573 53.8182 44.6831 54.0734 46.4087C54.2689 47.7297 56.2992 47.4346 56.1031 46.1086C55.8322 44.2763 55.4485 42.4437 54.9614 40.6488C55.2067 40.4962 55.4346 40.3182 55.6422 40.1192C59.0656 42.4433 62.2572 45.1112 65.1486 48.0639C63.3554 52.028 60.7455 55.6172 57.4295 58.5831C57.1016 58.3369 56.736 58.1388 56.3436 57.9979C56.5452 56.0908 56.633 54.1652 56.6035 52.2606C56.5827 50.9204 54.5311 50.9519 54.552 52.2924C54.5805 54.123 54.4957 55.9741 54.3009 57.8074C51.8814 58.1922 50.299 60.701 50.9656 63.0523C46.5375 65.3521 41.5757 66.5643 36.556 66.5643ZM54.9517 64.0238C53.7977 64.0238 52.8588 63.0781 52.8588 61.9156C52.974 59.1187 56.93 59.1197 57.0447 61.9156C57.0447 63.0781 56.1059 64.0238 54.9517 64.0238Z" fill="#48D87B"/>
</svg>
