<svg width="80" height="80" viewBox="0 0 80 80" fill="none" xmlns="http://www.w3.org/2000/svg">
<path d="M65.8081 31.3672C65.8081 29.223 64.0637 27.4786 61.9196 27.4786H59.3073C57.1631 27.4786 55.4187 29.223 55.4187 31.3672C55.4187 33.5114 57.1631 35.2557 59.3073 35.2557H59.743C59.9329 36.3477 60.3345 38.5211 61.1829 42.9449C61.3153 43.6383 61.1578 44.3335 60.7391 44.9005C60.6116 45.0745 60.4626 45.2295 60.2979 45.3632C60.2405 45.0092 60.1544 44.6429 60.0391 44.2651C59.2554 41.7053 58.2269 40.1788 56.8018 39.4598C55.8929 39.0009 54.9109 38.9081 53.8611 39.032C53.7463 38.6536 53.6407 38.2806 53.5455 37.9169C53.3813 37.2906 52.7405 36.9165 52.1149 37.0807C51.4886 37.2449 51.1145 37.8857 51.2787 38.5114C51.3684 38.8531 51.4661 39.2017 51.571 39.5551C51.1017 39.7003 50.6213 39.8651 50.1312 40.0378C50.13 40.0385 50.1294 40.0385 50.1288 40.0385C50.1031 40.0476 50.0781 40.0568 50.0525 40.0653C50.0427 40.069 50.033 40.072 50.0226 40.0757C50.0177 40.0775 50.0122 40.0793 50.0073 40.0812C49.9866 40.0879 49.9658 40.0952 49.9451 40.1019C49.2859 36.7987 48.7085 32.6294 49.1315 29.4849C49.3243 28.056 49.8322 26.2915 50.4272 24.3011C50.6122 23.681 50.26 23.0286 49.6399 22.843C49.0198 22.6569 48.3667 23.0103 48.1812 23.6304C47.5354 25.791 47.0245 27.5714 46.8085 29.1718C46.3409 32.6501 46.9598 37.1332 47.6617 40.6354C47.3901 40.6757 47.1063 40.7104 46.8079 40.741C46.795 40.7422 46.7822 40.7434 46.7694 40.7452C45.0568 40.9174 42.9559 40.9296 40.014 40.9296C37.0715 40.9296 34.9707 40.9174 33.2581 40.7452C33.2452 40.744 33.2324 40.7422 33.2196 40.741C32.9211 40.7104 32.6379 40.6757 32.3657 40.6354C33.0676 37.1332 33.6865 32.6501 33.219 29.1711C33.0017 27.5629 32.486 25.7709 31.8347 23.5956C31.6492 22.9755 30.9967 22.6227 30.376 22.8088C29.7565 22.9944 29.4043 23.6475 29.5898 24.2676C30.1898 26.272 30.7019 28.0481 30.896 29.4843C31.319 32.6294 30.7416 36.7987 30.0824 40.1019C30.0616 40.0952 30.0409 40.0879 30.0208 40.0812C30.0153 40.0793 30.0098 40.0775 30.0049 40.0757C29.9945 40.072 29.9847 40.069 29.975 40.0653C29.9493 40.0568 29.9243 40.0476 29.8987 40.0385C29.8981 40.0385 29.8975 40.0385 29.8962 40.0378C29.4061 39.8651 28.9264 39.7009 28.4576 39.5557C29.2596 36.8549 29.8779 33.576 29.2432 30.8325C28.0902 25.8502 21.1584 18.2367 25.7495 14.505C25.755 14.5007 25.7599 14.4965 25.7654 14.4922C25.7721 14.4873 25.7782 14.4818 25.7843 14.4769C25.8081 14.458 25.8313 14.4397 25.8551 14.4214C26.2946 14.082 26.7297 13.761 27.1503 13.4509C27.2699 13.3624 27.3889 13.2745 27.5073 13.1866C27.3596 15.4114 27.807 17.7234 28.2953 19.6954C28.4503 20.3241 29.0851 20.7068 29.7144 20.5518C30.3424 20.3961 30.7257 19.7607 30.5701 19.1327C29.9023 16.4337 29.3011 13.0402 30.5328 10.6085C31.1737 9.92188 31.7737 9.13391 32.3169 8.17505C32.4493 7.94128 32.58 7.70508 32.7112 7.46826C33.4113 6.20361 34.0729 5.00916 34.9915 4.09363C35.9155 3.17139 36.9952 2.34375 40.0134 2.34375C43.031 2.34375 44.1113 3.17139 45.036 4.09424C45.954 5.00854 46.6156 6.20361 47.3163 7.46826C47.4469 7.70508 47.5775 7.94067 47.7106 8.17566C48.2532 9.13391 48.8531 9.92188 49.494 10.6085C50.7275 13.0432 50.1227 16.4478 49.4507 19.1565C49.295 19.7845 49.6783 20.4199 50.3064 20.5756C50.401 20.5994 50.4962 20.6104 50.5896 20.6104C51.1151 20.6104 51.5936 20.2539 51.7261 19.7205C52.2168 17.7399 52.6678 15.4187 52.5195 13.1873C53.0676 13.5925 53.6133 13.9905 54.1705 14.422C54.1815 14.4299 54.1919 14.4379 54.2029 14.4458C57.2253 16.8176 55.6305 20.5536 53.0481 25.5676C52.0715 27.464 51.1493 29.2548 50.7837 30.8344C50.5957 31.6528 50.5084 32.5684 50.5243 33.5553C50.5353 34.2023 51.0626 34.7241 51.7151 34.7076C52.3627 34.6973 52.8784 34.1638 52.868 33.5168C52.8546 32.7191 52.9218 31.994 53.0676 31.3611C53.3667 30.0677 54.2242 28.4033 55.1318 26.6412C56.3275 24.3188 57.5635 21.9183 58.02 19.5459C58.5883 16.5936 57.7753 14.2456 55.6049 12.5671C53.1543 10.672 51.2103 9.59961 49.7504 7.02209C49.6216 6.79382 49.494 6.56372 49.3665 6.33301C48.6176 4.98108 47.8436 3.58276 46.6907 2.43469C45.4236 1.17004 43.7372 0 40.0134 0C36.2897 0 34.6033 1.17004 33.3362 2.43347C32.1832 3.58276 31.4087 4.98108 30.6598 6.33301C30.5322 6.56311 30.4053 6.79321 30.2765 7.02087C29.8212 7.82471 29.3213 8.48022 28.772 9.06128C28.7555 9.07715 28.739 9.09302 28.7225 9.11011C25.6104 12.3615 21.109 13.1726 21.9177 19.0106C22.2754 21.5912 23.7 24.3201 24.8944 26.6406C25.8026 28.4027 26.6595 30.0677 26.9586 31.3611C27.3926 33.2349 27.1185 35.8728 26.1664 39.0314C25.116 38.9075 24.1339 39.0009 23.2245 39.4598C21.7999 40.1782 20.7709 41.7053 19.9878 44.2645C19.8718 44.6429 19.7858 45.0092 19.729 45.3625C19.5642 45.2295 19.4153 45.0745 19.2871 44.9005C18.869 44.3329 18.7115 43.6383 18.844 42.9456C19.6918 38.5217 20.0934 36.3477 20.2832 35.2557H20.719C22.8632 35.2557 24.6075 33.5114 24.6075 31.3672C24.6075 29.223 22.8632 27.4786 20.719 27.4786H18.1073C15.9631 27.4786 14.2188 29.223 14.2188 31.3672C14.2188 33.443 15.8545 35.1447 17.9053 35.2502C17.6764 36.5253 17.2461 38.8318 16.5417 42.5049C16.2854 43.8477 16.5906 45.1923 17.4005 46.2915C18.0377 47.1552 18.9423 47.7795 19.9567 48.0737C20.094 48.4229 20.2759 48.7512 20.5029 49.0588C21.7316 50.719 24.1711 51.5613 27.7551 51.5613H36.7072V62.1033C35.9741 62.4371 35.4633 63.1763 35.4633 64.0326V67.2638L26.3971 69.8969C24.9878 70.3064 24.0918 71.6675 24.2401 73.0621C23.3588 73.7787 22.7948 74.8712 22.7948 76.0931C22.7948 78.2477 24.5471 80 26.7017 80C28.8556 80 30.6079 78.2477 30.6079 76.0931C30.6079 75.6622 30.5377 75.2466 30.4077 74.8584L37.0807 72.9205C37.0947 73.0896 37.1228 73.2574 37.1649 73.4222C36.5088 74.1217 36.1066 75.061 36.1066 76.0931C36.1066 78.2477 37.8589 80 40.0134 80C42.1674 80 43.9197 78.2477 43.9197 76.0931C43.9197 75.0671 43.5217 74.1321 42.8723 73.4338C42.9132 73.2666 42.9388 73.0957 42.9498 72.9218L49.6185 74.8584C49.4885 75.2466 49.4183 75.6622 49.4183 76.0931C49.4183 78.2477 51.1707 80 53.3252 80C55.4791 80 57.2314 78.2477 57.2314 76.0931C57.2314 74.8718 56.6681 73.7793 55.7867 73.0621C55.9351 71.6687 55.0391 70.3064 53.6285 69.8969L44.563 67.2638V64.0326C44.563 63.1763 44.0521 62.4371 43.3191 62.1033V54.9243H47.0654C47.7124 54.9243 48.2373 54.4 48.2373 53.7524C48.2373 53.1049 47.7124 52.5806 47.0654 52.5806H43.3197V51.5613H52.2717C55.8551 51.5613 58.2953 50.7196 59.5233 49.0588C59.751 48.7512 59.9329 48.4229 60.0696 48.0737C61.084 47.7795 61.9891 47.1552 62.6257 46.2915C63.4363 45.1923 63.7415 43.8477 63.4845 42.5043C62.7802 38.8318 62.3499 36.5253 62.1216 35.2502C64.1718 35.1447 65.8081 33.4436 65.8081 31.3672ZM16.5625 31.3672C16.5625 30.5157 17.2552 29.8224 18.1073 29.8224H20.719C21.571 29.8224 22.2638 30.5157 22.2638 31.3672C22.2638 32.2186 21.571 32.912 20.719 32.912H18.1073C17.2552 32.912 16.5625 32.2186 16.5625 31.3672ZM46.283 43.1409C47.2693 45.0092 47.6819 47.1173 47.4744 49.2175C40.0122 49.2169 33.9551 49.2175 32.5525 49.2175C32.345 47.1173 32.7576 45.0092 33.7439 43.1409C35.4126 43.2629 37.3981 43.2733 40.0134 43.2733C42.6282 43.2733 44.6143 43.2629 46.283 43.1409ZM22.3871 47.6648C22.2223 47.442 22.1094 47.1887 22.0471 46.9025C22.0416 46.8652 22.0343 46.8286 22.0258 46.7926C21.9403 46.2817 22.0081 45.672 22.229 44.9506C22.8046 43.0701 23.4753 41.958 24.2804 41.5521C24.5844 41.3989 24.9402 41.3287 25.3552 41.3287C26.0095 41.3287 26.8097 41.5033 27.7832 41.803C26.6528 44.0778 26.2024 46.6528 26.4941 49.1766C23.9276 48.999 22.843 48.2806 22.3871 47.6648ZM28.8629 49.2175C28.5297 46.9312 28.9447 44.5752 30.0403 42.5409C30.4486 42.655 30.8618 42.7521 31.2885 42.8333C30.3961 44.8358 30.0214 47.027 30.199 49.2175H28.8629ZM26.7017 77.6562C25.8398 77.6562 25.1385 76.955 25.1385 76.0931C25.1385 75.4565 25.5219 74.9072 26.0699 74.6643C26.076 74.6613 26.0828 74.6582 26.0895 74.6558C26.2775 74.5752 26.4844 74.5306 26.7017 74.5306C27.5635 74.5306 28.2642 75.2319 28.2642 76.0931C28.2642 76.955 27.5629 77.6562 26.7017 77.6562ZM40.0134 77.6562C39.1516 77.6562 38.4503 76.955 38.4503 76.0931C38.4503 75.2313 39.1516 74.5306 40.0134 74.5306C40.8752 74.5306 41.5759 75.2313 41.5759 76.0931C41.5759 76.955 40.8752 77.6562 40.0134 77.6562ZM53.3252 77.6562C52.4634 77.6562 51.7621 76.955 51.7621 76.0931C51.7621 75.2313 52.4634 74.5306 53.3252 74.5306C53.5425 74.5306 53.7488 74.5752 53.9368 74.6552C53.9429 74.6576 53.9484 74.66 53.9539 74.6625C54.5032 74.9054 54.8883 75.4553 54.8883 76.0931C54.8883 76.955 54.187 77.6562 53.3252 77.6562ZM52.9755 72.1472C53.017 72.1594 53.056 72.1747 53.0933 72.1936C52.3712 72.2363 51.701 72.4756 51.1365 72.8589L42.1106 70.2368C41.756 70.1343 41.3745 70.2039 41.0797 70.4254C40.7849 70.6464 40.6116 70.9937 40.6116 71.3623V72.2321C40.4163 72.2021 40.2167 72.1863 40.0134 72.1863C39.8096 72.1863 39.61 72.2021 39.4147 72.2321V71.3623C39.4147 70.9937 39.2413 70.6464 38.9465 70.4254C38.6517 70.2039 38.2703 70.1343 37.9156 70.2368L28.8898 72.8589C28.3252 72.4756 27.655 72.2363 26.933 72.1936C26.9702 72.1747 27.0099 72.1594 27.0508 72.1472L36.9617 69.2688C37.4622 69.1235 37.807 68.6652 37.807 68.1439V64.2578H42.2192V68.1439C42.2192 68.6652 42.5635 69.1235 43.064 69.2688L52.9755 72.1472ZM40.976 53.7341C40.9753 53.7402 40.9753 53.7463 40.9753 53.7524C40.9753 53.7585 40.976 53.7646 40.976 53.7708V61.9141H39.0509V51.5613H40.976V53.7341ZM49.8279 49.2175C50.0055 47.027 49.6307 44.8352 48.7384 42.8333C49.165 42.7515 49.5782 42.655 49.9866 42.5409C51.0815 44.5752 51.4972 46.9305 51.1639 49.2175H49.8279ZM53.5321 49.1766C53.8239 46.6528 53.374 44.0778 52.243 41.803C53.8348 41.3129 54.9634 41.1572 55.7465 41.5521C56.5509 41.958 57.2217 43.0695 57.7979 44.9506C58.0188 45.672 58.0865 46.2817 58.0005 46.7926C57.9919 46.828 57.9852 46.8652 57.9797 46.9019C57.9175 47.1887 57.804 47.442 57.6392 47.6648C57.1838 48.2806 56.0992 48.999 53.5321 49.1766ZM61.9196 32.912H59.3073C58.4558 32.912 57.7625 32.2186 57.7625 31.3672C57.7625 30.5157 58.4558 29.8224 59.3073 29.8224H61.9196C62.771 29.8224 63.4644 30.5157 63.4644 31.3672C63.4644 32.2186 62.771 32.912 61.9196 32.912Z" fill="#48D87B"/>
<path d="M46.601 19.3317C47.3755 18.6639 47.8198 17.6941 47.8198 16.6711V14.7247C47.8198 13.7018 47.3755 12.7313 46.601 12.0636C45.8191 11.3891 44.7821 11.0895 43.7555 11.2421C41.2726 11.6101 38.7537 11.6101 36.2708 11.2421C35.2441 11.0895 34.2072 11.3891 33.4253 12.0636C32.6508 12.7313 32.207 13.7018 32.207 14.7247V16.6705C32.207 17.6941 32.6508 18.6639 33.4253 19.3317C34.0735 19.8907 34.8975 20.1923 35.7446 20.1923C35.9198 20.1923 36.0956 20.1794 36.2708 20.1538C38.7543 19.7851 41.2726 19.7851 43.7555 20.1538C44.7821 20.3058 45.8191 20.0061 46.601 19.3317ZM40.0134 17.5336C38.6481 17.5336 37.2827 17.6343 35.9265 17.8351C35.5756 17.887 35.2216 17.7862 34.9561 17.5574C34.6948 17.3315 34.5508 17.0166 34.5508 16.6711V14.7247C34.5508 14.3787 34.6948 14.0643 34.9561 13.8385C35.2216 13.6096 35.575 13.5077 35.9271 13.5602C38.6383 13.9624 41.3885 13.9624 44.0997 13.5602C44.4513 13.5083 44.8053 13.6096 45.0702 13.8385C45.332 14.0643 45.4761 14.3787 45.4761 14.7247V16.6705C45.4761 17.0166 45.332 17.3315 45.0702 17.5568C44.8047 17.7856 44.4507 17.887 44.0997 17.8351C42.7441 17.6343 41.3788 17.5336 40.0134 17.5336Z" fill="#48D87B"/>
</svg>
